
        <svg xmlns="http://www.w3.org/2000/svg" xmlns:xlink="http://www.w3.org/1999/xlink" version="1.1" width="3162.076457697427" 
        height="612.0443551439739" viewBox="0 0 3162.076457697427 612.0443551439739">
			
			<g transform="scale(8.103822884871358) translate(10, 10)">
				<defs id="SvgjsDefs1276"></defs><g id="SvgjsG1277" featureKey="symbolFeature-0" transform="matrix(0.7007840781085105,0,0,0.7007840781085105,-16.11803379649574,-7.708624859193615)" fill="#0c056d"><title xmlns="http://www.w3.org/2000/svg">08-02-2015 - ink</title><desc xmlns="http://www.w3.org/2000/svg">Created with Sketch.</desc><g xmlns="http://www.w3.org/2000/svg" stroke="none" stroke-width="1" fill="none" fill-rule="evenodd" xmlns:sketch="http://www.bohemiancoding.com/sketch/ns" sketch:type="MSPage"><g sketch:type="MSArtboardGroup" fill="#0c056d"><path d="M73.3830828,19.9648402 C67.7226235,28.4465183 56.8345586,40.6228948 52.122712,45.7783073 C50.0395664,49.7103421 48,53.2332295 48,53.2332295 L46,53.2332295 C46,53.2332295 47.4558282,49.6976467 49.3241808,45.7563927 L49.3241808,45.7563927 C48.5149303,40.5446675 48.2349973,28.1039543 61,18.1338568 L61,18.1338568 L61,27.2332295 L63.3092082,16.4569247 C64.9669946,15.3366352 66.8099125,14.257023 68.8574994,13.2332295 C77.7878352,8.76806159 78.3419673,11.4993505 75.220366,17.0102749 L65.6504476,22.3149673 L73.3830828,19.9648402 Z M32,60.2332295 L64,60.2332295 L64,64.2332295 L32,64.2332295 L32,60.2332295 Z M23,70.2332295 L32,64.2332295 L64,64.2332295 L73,70.2332295 L69,89.2332295 L27,89.2332295 L23,70.2332295 Z M29,54.2332295 L67,54.2332295 L67,59.2332295 L29,59.2332295 L29,54.2332295 Z" sketch:type="MSShapeGroup"></path></g></g></g><g id="SvgjsG1278" featureKey="nameFeature-0" transform="matrix(1.623060267836907,0,0,1.623060267836907,52.80620900036697,-14.411800865244246)" fill="#0c056d"><path d="M3.2 12 l4.2 0 l0 25.32 l-1.44 0 l0 -23.88 l-1.32 0 l0 25.12 l4.04 0 l0 -26.56 l1.44 0 l0 28 l-6.92 0 l0 -28 z M38.525 28.6 l-16.36 -16.6 l-2 0 l19.8 20.12 l0 -17.32 l-1.44 0 l0 13.8 z M37.205 25.4 l0 -12 l4.08 0 l0 25.16 l-0.68 0 l-0.16 -0.16 l-18.32 -18.56 l0 20.16 l4.2 0 l0 -11.8 l-1.48 -1.52 l0 11.88 l-1.28 0 l0 -15.2 l16.6 16.64 l2.56 0 l0 -28 l-6.96 0 l0 11.84 z M20.805 40 l0 -23.4 l19.16 19.44 l0 -2.12 l-20.56 -20.76 l0 26.84 l1.4 0 z M53.769999999999996 38.6 l0 -26.6 l-1.44 0 l0 28.04 l7 -0.04 l0 -11.44 l10.96 -13.88 l-1.84 0 l-10.6 13.36 l0 10.56 l-4.08 0 z M57.81 21.28 l1.48 -1.84 l0 -7.44 l-4.24 0 l0 12.84 l1.44 -1.84 l0 -9.52 l1.32 0 l0 7.8 z M75.77 12 l-8.84 0 l-11.88 15.24 l0 10.32 l1.44 0 l0 -9.84 l11.12 -14.24 l5.2 0 l-11.28 14.36 l7.2 9.72 l1.8 0 l-7.16 -9.72 z M72.93 38.6 l-5.08 0 l-7.16 -9.68 l0 2.4 l6.44 8.68 l8.68 0 l-9.8 -13.16 l-0.92 1.16 z M93.61500000000001 38.6 l-0.72 0 l-0.32 -1.08 l-5.84 -18.76 l-1.6 -5.36 l1.24 0 l6.24 20.32 l0.64 2.16 l0.24 0 l0.76 -1.88 l-0.76 -2.32 l-6.04 -19.68 l-4.28 0 l8.64 28 l2.76 0 l3.64 -8.68 l0.76 -1.84 l1.04 -2.6 l-0.76 -1.8 l-1.08 2.56 l-0.76 1.84 z M88.735 12 l6.2 20.4 l4.4 -10.52 l7.92 18.16 l1.56 0 l-9.48 -21.8 l-4.24 9.76 l-4.84 -16 l-1.52 0 z M109.055 24.36 l3.36 -10.96 l4.08 0 l-0.36 1.16 l-4.08 13.36 l-2.32 7.56 l-9.84 -22.72 l-1.04 0 l-4.24 9.84 l0.64 2.12 l4.12 -9.52 l1.28 2.92 l8.96 20.76 l0.36 0.8 l8.44 -27.68 l-7.08 0 l-3.12 10.36 z M109.295 27.84 l-0.84 -2 l-5.68 -13.08 l-1.56 0 l8.32 19.2 l5.36 -17.48 l-1.52 0 z M127.06 12.079999999999998 l1.44 0 l0 26.48 l15.32 0 l0 -4 l-11.28 0 l0 -3.84 l1.44 0 l0 2.4 l11.28 0 l0 6.88 l-18.2 0 l0 -27.92 z M129.78 12.079999999999998 l15.28 0 l0 6.84 l-9.6 0 l0 -1.44 l8.16 0 l0 -3.96 l-12.4 0 l0 11.56 l9.32 0 l0 1.44 l-10.76 0 l0 -14.44 z M129.78 27.8 l12.16 0 l0 -4 l-9.4 0 l0 -9.08 l9.68 0 l0 1.44 l-8.24 0 l0 6.2 l9.4 0 l0 6.88 l-12.16 0 l0 6.64 l11.2 0 l0 1.44 l-12.64 0 l0 -9.52 z M154.745 11.96 l4.12 0 l0 25.4 l-1.48 0 l0 -23.96 l-1.2 0 l0 25.16 l13.16 0 l0 -3.84 l-6.52 0 l0 -1.44 l7.96 0 l0 6.72 l-16.04 0 l0 -28.04 z M160.185 11.96 l1.44 0 l0 23.92 l6.44 0 l0 1.48 l-7.88 0 l0 -25.4 z M179.51 11.96 l4.12 0 l0 25.4 l-1.48 0 l0 -23.96 l-1.2 0 l0 25.16 l13.16 0 l0 -3.84 l-6.52 0 l0 -1.44 l7.96 0 l0 6.72 l-16.04 0 l0 -28.04 z M184.95 11.96 l1.44 0 l0 23.92 l6.44 0 l0 1.48 l-7.88 0 l0 -25.4 z"></path></g>
			</g>
		</svg>
	